# xmcd CD database file
#
# Track frame offsets:
#	150
#	19025
#	37927
#
# Disc length: 756 seconds
#
# Revision: 2
# Processed by: cddbd v1.5.2PL0 Copyright (c) Steve Scherf et al.
# Submitted via: CDex 1.70beta3
#
DISCID=1602f203
DTITLE=引田とも子 With ばびっと隊 - DAIJO-BU
DYEAR=1997
DGENRE=Blues
TTITLE0=DAIJO-BU
TTITLE1=DAIJO-BU (ひとりでうたおう!バージョン)
TTITLE2=DAIJO-BU (みんなでうたおう!バージョン)
EXTD=
EXTT0=
EXTT1=
EXTT2=
PLAYORDER=
